<svg fill="none" height="32" viewBox="0 0 32 32" width="32" xmlns="http://www.w3.org/2000/svg"><g fill="#030405"><path d="m2.73635 2h-2.6962099v16.2919h2.6962099z"/><path d="m13.7358 2h-2.6962v16.2919h2.6962z"/><path d="m25.4505 10.0759 6.524 6.4561-1.7982 1.7663-4.7258-4.6897-4.8214 4.6897-1.7005-1.7663z"/><path d="m18.067 21.7696h-1.5605v8.1863h1.5605v-1.9128l.6581-.6836 1.4712 2.5964h1.9341l-2.2631-3.7853 2.1782-2.261h-1.9744l-2.0041 2.2907z"/><path clip-rule="evenodd" d="m12.5808 26.2593c.2951-.0382.5074-.0828.6347-.1401.2293-.0955.3418-.2462.3418-.4501 0-.2483-.087-.4203-.2632-.5158-.1762-.0956-.4331-.1423-.7707-.1423-.38 0-.6496.0934-.8067.2781-.1125.138-.189.3227-.225.5584h-1.53285c.03397-.5308.18255-.9681.44795-1.3099.4225-.535 1.1464-.8025 2.1718-.8025.6688 0 1.2611.1316 1.7791.3949.518.2632.7792.7621.7792 1.4924v2.7875c0 .1932.0042.4268.0106.7028.0106.208.0424.3481.0955.4224.051.0743.1295.1359.2335.1847v.2336h-1.7281c-.0488-.1232-.0807-.2378-.0998-.3461s-.0339-.2293-.0446-.3673c-.2207.2378-.4755.4395-.7621.6072-.3439.1975-.7324.2951-1.1655.2951-.5541 0-1.0106-.1571-1.3715-.4713-.36091-.3142-.54137-.7579-.54137-1.3354 0-.7473.29087-1.2865.87047-1.6219.3184-.1826.7855-.3121 1.4033-.3907zm.9723.741c-.1019.0637-.2038.1146-.3078.1528-.1041.0382-.2463.0743-.4268.1083l-.3609.0658c-.3397.0595-.5817.1316-.7303.2166-.2505.1443-.3758.3694-.3758.6751 0 .2717.0765.467.2293.588.1529.1211.3376.1805.5584.1805.3481 0 .6666-.0998.9596-.3015.2929-.2016.4437-.5668.4564-1.0976v-.588z" fill-rule="evenodd"/><path d="m7.60672 23.9032c.25901.104.49678.2866.70696.5456.16984.2123.28661.4713.34605.7791.03609.2039.0552.5032.0552.8981l-.01062 3.8299h-1.62622v-3.8681c0-.2293-.03821-.4204-.11252-.569-.14011-.2824-.40124-.4225-.77914-.4225-.43946 0-.74093.1826-.90864.5456-.08492.1932-.12738.4246-.12738.6964v3.6176h-1.59863v-3.6176c0-.3609-.03609-.6221-.11039-.7855-.13375-.293-.39488-.4395-.78551-.4395-.45433 0-.75792.1465-.91502.4395-.08492.1677-.12738.4161-.12738.7473v3.6558h-1.61348v-6.0633h1.54342v.8853c.19744-.3164.38214-.5414.55835-.673.30784-.2378.70696-.3567 1.19738-.3567.46493 0 .83858.1019 1.12519.3057.22928.189.40549.4331.52438.7303.20805-.3566.46706-.6178.7749-.7855.32694-.1677.6921-.2505 1.09122-.2505.2675-.0021.53075.051.79188.155z"/><path clip-rule="evenodd" d="m26.8287 24.0028c.4246.1889.7728.4904 1.0487.898.2484.3609.4098.7792.4841 1.2568.0424.2781.0594.6815.0531 1.2059h-4.4244c.0255.6093.2357 1.036.6348 1.2823.242.1528.535.2293.8768.2293.3609 0 .656-.0934.881-.2781.1232-.0998.2315-.2399.327-.4183h1.622c-.0425.3609-.2399.7261-.5881 1.0976-.5435.5902-1.3057.8853-2.2865.8853-.8088 0-1.5222-.2484-2.14-.7473s-.9277-1.3099-.9277-2.4329c0-1.0531.2781-1.8598.8364-2.4203.5584-.5626 1.2823-.8428 2.1719-.8428.5307 0 1.0084.0955 1.4309.2845zm-2.3757 1.3736c-.225.2314-.3651.5456-.4224.9405h2.7365c-.0297-.4225-.1698-.741-.4225-.9596-.2526-.2187-.5668-.327-.9426-.327-.4076-.0021-.7239.1147-.949.3461z" fill-rule="evenodd"/><path d="m28.5947 23.9372v1.1315h.8492v3.7386c0 .3779.0892.6582.2675.8408.2739.2866.7876.4161 1.5371.3906l.7515-.0276v-1.1868c-.0531.0043-.1062.0064-.1592.0085-.0531.0021-.1041.0021-.1529.0021-.3227 0-.5159-.0297-.5796-.0912-.0636-.0616-.0955-.2166-.0955-.465v-3.21h.9872v-1.1315h-.9872v-1.6942h-1.571v1.6942z"/></g></svg>